# xmcd
#
# Track frame offsets: 
#        150
#        19256
#        39867
#        56603
#        75801
#        95537
#        114383
#        130994
#        153687
#        168841
#        194534
#
# Disc length: 2740 seconds
#
# Revision: 1
# Processed by: cddbd v1.5.2PL0 Copyright (c) Steve Scherf et al.
# Submitted via: ExactAudioCopyFreeDBPlugin 1.0
#
DISCID=820ab20b
DTITLE=Climax Blues Band - Sample and Hold
DYEAR=1982
DGENRE=Blues
TTITLE0=Friends In High Places
TTITLE1=Sign Of The Times
TTITLE2=Walking On Sunset
TTITLE3=Shine
TTITLE4=Movie Queen
TTITLE5=Heaven And Hell
TTITLE6=Listen To The Night
TTITLE7=Doin' Alright
TTITLE8=I'm Ready
TTITLE9=The End Of The Seven Seas
TTITLE10=Church
EXTD=
EXTT0=
EXTT1=
EXTT2=
EXTT3=
EXTT4=
EXTT5=
EXTT6=
EXTT7=
EXTT8=
EXTT9=
EXTT10=
PLAYORDER=
